# xmcd
#
# Track frame offsets:
#	150
#	24867
#	87031
#	116826
#	153611
#	188633
#	212999
#	224622
#	250675
#	263979
#
# Disc length: 3828 seconds
#
# Revision: 1
# Processed by: cddbd v1.5.2PL0 Copyright (c) Steve Scherf et al.
# Submitted via: audiograbber 1.83.01
#
DISCID=8a0ef20a
DTITLE=Grateful Dead - 80-08-21 Uptown Theatre, Chicago IL
DYEAR=1900
DGENRE=
TTITLE0=Drums
TTITLE1=Uncle John's Band
TTITLE2=Truckin'
TTITLE3=The Other One
TTITLE4=Drums
TTITLE5=The Wheel
TTITLE6=Uncle John's Band
TTITLE7=Sugar Magnolia
TTITLE8=Sunshine Daydream
TTITLE9=Alabama Getaway
EXTD=
EXTT0=
EXTT1=
EXTT2=
EXTT3=
EXTT4=
EXTT5=
EXTT6=
EXTT7=
EXTT8=
EXTT9=
PLAYORDER=
